<svg width="50" height="50" viewBox="0 0 503 602" fill="none" xmlns="http://www.w3.org/2000/svg">
<path d="M249 600.5L213 578.5L170 547.5L131 510.5L93 460.5L52 394.5L26 328.5L8 262.5L1 177.5V80.5L26 74.5L93 62.5L138 50.5L186 31L214.5 18L236.5 8.5L252 1L260 5L274.5 12L301 23.5L316.5 31L333.5 38L368.5 51.5L406 61.5L435 66.5L470.5 73L502.5 78V137L500 182.5L496 231.5L490.5 271L476.5 330.5L457.5 379.5L436.5 423L418 452L398.5 477.5L387 493L373.5 507.5L363.5 518.5L351 530L324 553.5L303 571L293 578.5L284 582.5L249 600.5Z" fill="#0D0D0D" stroke="black"/>
</svg>
